<svg xmlns="http://www.w3.org/2000/svg" viewBox="0 0 128 128">
  <defs>
    <linearGradient id="bg" x1="14" x2="112" y1="15" y2="118" gradientUnits="userSpaceOnUse">
      <stop stop-color="#CFF4EA"/>
      <stop offset="1" stop-color="#65BDB0"/>
    </linearGradient>
    <filter id="shadow" x="-20%" y="-20%" width="140%" height="150%">
      <feDropShadow dx="0" dy="8" stdDeviation="7" flood-color="#2D6860" flood-opacity=".25"/>
    </filter>
  </defs>
  <rect width="128" height="128" rx="30" fill="url(#bg)"/>
  <g filter="url(#shadow)">
    <rect x="24" y="24" width="80" height="80" rx="18" fill="#F5FFF8"/>
    <g fill="#B9E8DA">
      <rect x="34" y="34" width="16" height="16" rx="5"/>
      <rect x="56" y="34" width="16" height="16" rx="5"/>
      <rect x="78" y="34" width="16" height="16" rx="5"/>
      <rect x="34" y="56" width="16" height="16" rx="5"/>
      <rect x="78" y="56" width="16" height="16" rx="5"/>
      <rect x="34" y="78" width="16" height="16" rx="5"/>
      <rect x="56" y="78" width="16" height="16" rx="5"/>
      <rect x="78" y="78" width="16" height="16" rx="5"/>
    </g>
    <circle cx="64" cy="64" r="13" fill="#2F3B40"/>
    <path d="M64 44v40M44 64h40M50 50l28 28M78 50 50 78" stroke="#2F3B40" stroke-width="5" stroke-linecap="round"/>
    <circle cx="69" cy="58" r="4" fill="#FFFFFF"/>
  </g>
</svg>
