<svg xmlns="http://www.w3.org/2000/svg" viewBox="0 0 128 128">
  <defs>
    <linearGradient id="bg" x1="16" x2="114" y1="14" y2="116" gradientUnits="userSpaceOnUse">
      <stop stop-color="#FFE0E8"/>
      <stop offset="1" stop-color="#E98EA5"/>
    </linearGradient>
    <filter id="shadow" x="-20%" y="-20%" width="140%" height="150%">
      <feDropShadow dx="0" dy="8" stdDeviation="8" flood-color="#8F4055" flood-opacity=".25"/>
    </filter>
  </defs>
  <rect width="128" height="128" rx="30" fill="url(#bg)"/>
  <g filter="url(#shadow)">
    <rect x="30" y="30" width="46" height="66" rx="10" fill="#FFFFFF" transform="rotate(-10 53 63)"/>
    <rect x="52" y="27" width="46" height="66" rx="10" fill="#FFF6E5" transform="rotate(9 75 60)"/>
    <path d="M74 50c4-8 18-6 18 5 0 13-18 19-18 19S56 68 56 55c0-11 14-13 18-5Z" fill="#D84D5A"/>
    <path d="M47 52c3-7 14-5 14 4 0 10-14 15-14 15S33 66 33 56c0-9 11-11 14-4Z" fill="#313642"/>
  </g>
</svg>
