<svg xmlns="http://www.w3.org/2000/svg" viewBox="0 0 128 128">
  <defs>
    <linearGradient id="bg" x1="14" x2="112" y1="15" y2="118" gradientUnits="userSpaceOnUse">
      <stop stop-color="#F6EDFF"/>
      <stop offset="1" stop-color="#D3E2F7"/>
    </linearGradient>
    <linearGradient id="note" x1="34" x2="94" y1="32" y2="100" gradientUnits="userSpaceOnUse">
      <stop stop-color="#FFF6C4"/>
      <stop offset="1" stop-color="#F7DE6E"/>
    </linearGradient>
    <filter id="shadow" x="-20%" y="-20%" width="140%" height="150%">
      <feDropShadow dx="0" dy="8" stdDeviation="7" flood-color="#5C4A8A" flood-opacity=".22"/>
    </filter>
  </defs>
  <rect width="128" height="128" rx="30" fill="url(#bg)"/>
  <g filter="url(#shadow)">
    <rect x="30" y="30" width="62" height="62" rx="10" fill="#FBD3E0" transform="rotate(-7 61 61)"/>
    <rect x="36" y="28" width="62" height="62" rx="10" fill="url(#note)"/>
    <path d="M36 34a6 6 0 0 1 6-6h50a6 6 0 0 1 6 6v10H36z" fill="#F2D24B" opacity=".8"/>
    <path d="M98 90H82a6 6 0 0 1-6-6V68z" fill="#E9CE5C"/>
    <path d="M36 90h40l22-22v16a6 6 0 0 1-6 6H42a6 6 0 0 1-6-6z" fill="#F2DA7C"/>
    <g stroke="#B89A1F" stroke-width="4" stroke-linecap="round">
      <path d="M46 56h34"/>
      <path d="M46 66h34"/>
      <path d="M46 76h20"/>
    </g>
    <path d="M40 30h52" stroke="#FFFFFF" stroke-width="3" stroke-linecap="round" opacity=".7"/>
  </g>
</svg>
