<svg xmlns="http://www.w3.org/2000/svg" viewBox="0 0 128 128">
  <defs>
    <linearGradient id="bg" x1="14" x2="112" y1="15" y2="118" gradientUnits="userSpaceOnUse">
      <stop stop-color="#EAF4FF"/>
      <stop offset="1" stop-color="#A8D4FF"/>
    </linearGradient>
    <filter id="shadow" x="-20%" y="-20%" width="140%" height="150%">
      <feDropShadow dx="0" dy="8" stdDeviation="7" flood-color="#1D5BA8" flood-opacity=".22"/>
    </filter>
  </defs>
  <rect width="128" height="128" rx="30" fill="url(#bg)"/>
  <g filter="url(#shadow)">
    <rect x="22" y="22" width="40" height="40" rx="11" fill="#FFFFFF"/>
    <circle cx="42" cy="42" r="12" fill="none" stroke="#0067C0" stroke-width="4"/>
    <path d="M42 35v7l5 4" fill="none" stroke="#0067C0" stroke-width="3.5" stroke-linecap="round"/>
    <rect x="66" y="22" width="40" height="40" rx="11" fill="#FFFFFF"/>
    <rect x="73" y="29" width="26" height="5" rx="2.5" fill="#0067C0"/>
    <g fill="#B9D9F5">
      <rect x="73" y="39" width="7" height="6" rx="2"/>
      <rect x="82.5" y="39" width="7" height="6" rx="2"/>
      <rect x="92" y="39" width="7" height="6" rx="2"/>
      <rect x="73" y="48" width="7" height="6" rx="2"/>
      <rect x="82.5" y="48" width="7" height="6" rx="2"/>
    </g>
    <rect x="92" y="48" width="7" height="6" rx="2" fill="#0067C0"/>
    <rect x="22" y="66" width="40" height="40" rx="11" fill="#FFFFFF"/>
    <g stroke="#5B8FC4" stroke-width="3.5" stroke-linecap="round">
      <path d="M31 78h22"/>
      <path d="M31 87h22"/>
      <path d="M31 96h13"/>
    </g>
    <rect x="66" y="66" width="40" height="40" rx="11" fill="#FFFFFF"/>
    <path d="M80 93a8 8 0 0 1 .8-15.9 10 10 0 0 1 19.2 3.4A6.5 6.5 0 0 1 98.5 93z" fill="#7FB8EC"/>
    <path d="M78 98l-2 4M86 98l-2 4M94 98l-2 4" stroke="#5B8FC4" stroke-width="3" stroke-linecap="round"/>
  </g>
</svg>
