<svg width="1024" height="1024" viewBox="0 0 1024 1024" xmlns="http://www.w3.org/2000/svg">
  <rect width="1024" height="1024" rx="180" fill="#253342"/>
  <path d="M214 304c0-58 47-105 105-105h258c58 0 105 47 105 105v154c0 58-47 105-105 105H426L296 662c-25 19-61 1-61-30v-77c-13-6-21-12-21-12V304z" fill="#F8FAFC"/>
  <path d="M404 610h193c71 0 128-57 128-128V342c47 14 82 58 82 110v156c0 58-47 105-105 105H590l-129 99c-25 19-61 1-61-30v-73c-51-2-94-41-102-91 24 7 58-8 106-8z" fill="#22A06B"/>
  <circle cx="376" cy="386" r="30" fill="#253342"/>
  <circle cx="474" cy="386" r="30" fill="#253342"/>
  <circle cx="572" cy="386" r="30" fill="#253342"/>
</svg>
