<svg width="1500" height="500" viewBox="0 0 1500 500" fill="none" xmlns="http://www.w3.org/2000/svg">
  <defs>
    <radialGradient id="bg" cx="30%" cy="45%" r="70%">
      <stop offset="0%" stop-color="#3D4A37"/>
      <stop offset="100%" stop-color="#323D2E"/>
    </radialGradient>
  </defs>

  <!-- Background -->
  <rect width="1500" height="500" fill="url(#bg)"/>

  <!-- Rabbit (white, left side) -->
  <g transform="translate(80, 100) scale(1.8)" fill="#FAFAF9">
    <path d="M106.549 63.2861C107.417 63.3152 114.869 65.6036 115.43 66.1118C117.9 68.3524 120.517 71.0588 122.902 73.4339C129.369 79.8524 135.786 86.3199 142.155 92.8355C147.844 98.5016 153.47 104.231 159.033 110.023C160.252 111.272 165.261 116.192 166.077 117.356L165.97 117.35C161.075 117.038 160.836 115.75 157.169 113.268C152.687 110.236 150.229 107.303 146.433 103.508L130.131 87.0797L113.938 70.7346C111.929 68.7094 108.327 65.3075 106.549 63.2861Z"/>
    <path d="M58.4962 70.703C58.6465 70.7341 58.8314 70.7722 59.0506 70.8177C62.4186 73.891 67.0837 78.9016 70.1042 82.0172L81.6529 93.7949C83.1567 95.3482 87.5259 100.036 88.9614 101.047C85.8853 102.075 83.6298 102.746 80.7653 104.453C79.9982 104.911 78.2537 106.441 77.8443 106.597C77.774 106.202 77.8686 105.79 77.9278 105.385C77.6115 104.901 73.4368 100.751 72.7703 100.068C67.3911 94.5363 61.9607 89.0546 56.48 83.6236C54.7734 81.9124 52.9504 79.9522 51.1709 78.3627C51.7867 77.471 52.745 75.901 53.6557 75.38C54.5292 75.4302 61.9256 83.2286 63.2482 84.5603C68.7723 90.0305 74.2376 95.5599 79.6429 101.147C79.5832 99.6468 79.5117 96.1921 78.6482 95.0943C76.7998 92.7441 73.7675 89.9178 71.6067 87.7596L56.3576 72.5141C57.2896 71.8353 57.6814 71.5146 58.4962 70.703Z"/>
    <path d="M95.6175 27.7143C96.512 27.6702 98.395 27.7899 99.0418 28.3369C100.564 29.6244 102.17 31.2802 103.579 32.6869L112.383 41.4893L139.34 68.2868C143.138 72.0522 147.833 77.108 151.646 80.5582C149.601 80.5844 149.275 80.6132 147.402 81.4068C146.841 81.7266 146.472 82.0257 145.917 81.4719C143.76 79.3216 141.615 77.1594 139.463 75.0052L125.106 60.658C125.578 59.1622 126.043 58.2136 126.354 56.6411C124.069 52.3293 117.993 52.2807 114.425 49.886C113.962 49.5752 111.846 47.3979 111.283 46.834L105.545 41.0771C101.872 37.3941 96.4454 32.3372 93.1106 28.56C93.9434 28.164 94.7033 27.8596 95.6175 27.7143Z"/>
    <path d="M107.071 16.3071C107.749 16.7929 109.252 18.2823 109.901 18.8992C112.355 21.2678 114.779 23.6667 117.173 26.0953C123.527 32.4321 129.939 38.8167 136.174 45.2723C138.112 47.279 137.755 48.7113 139.468 50.487C140.053 51.0931 142.32 51.7188 143.027 52.2617C143.742 52.8109 144.636 53.7909 145.301 54.4587L149.92 59.0979L158.872 68.0745C160.131 69.3345 161.391 70.5935 162.675 71.8271C163.558 72.6759 162.564 73.7373 162.019 74.4868L161.697 74.7601C161.603 74.7649 161.491 74.7709 161.358 74.7779C159.794 73.5398 157.659 71.2681 156.295 69.8884L143.849 57.476C141.925 55.5515 139.937 53.4987 137.965 51.6012C137.276 50.9387 135.205 50.6059 134.733 50.2524C130.685 47.2242 127.375 42.7485 123.92 39.0985C122.705 37.8354 121.26 36.7521 120.02 35.5273C116.138 31.6924 112.224 27.8748 108.405 23.9787C107.757 23.3182 107.188 22.4049 106.954 21.5099C106.481 19.704 106.164 18.037 107.071 16.3071Z"/>
    <path d="M105.368 30.1617C107.661 30.3544 117.618 36.7225 119.677 38.5206C121.238 39.8844 124.012 42.6646 125.598 44.2588L134.867 53.5653C142.841 61.5239 151.676 69.9274 159.32 78.0741C158.85 78.4785 158.425 78.7271 157.9 79.0553C157.826 79.1161 157.815 79.1294 157.722 79.185C156.994 79.6161 155.966 80.0633 155.118 79.8321C154.368 79.6274 147.694 72.5972 146.755 71.6561L114.598 39.5033C113.482 38.3842 105.795 30.9331 105.368 30.1617Z"/>
    <path d="M94.0688 61.4461C95.0237 61.3781 99.7799 61.7861 100.258 62.1907C103.342 64.8007 107.678 69.3517 110.502 72.1704L138.536 100.199C139.193 100.857 146.023 107.568 146.139 107.846C145.76 107.803 144.883 107.525 144.457 107.425C142.448 106.954 141.195 106.604 139.13 106.716C136.139 104.095 132.16 99.8242 129.221 96.9109C121.214 88.9506 113.27 80.927 105.391 72.8408L96.6892 64.1047C96.2898 63.6965 94.2249 61.6676 94.0688 61.4461Z"/>
    <path d="M83.0591 61.2961C84.2133 61.1717 87.1264 61.2592 88.2725 61.3333C89.8442 62.4367 93.7538 66.6442 95.3038 68.1977C100.387 73.2264 105.444 78.2828 110.472 83.3667C116.525 89.3091 122.515 95.3155 128.441 101.385C129.257 102.22 133.361 106.031 133.783 106.582C130.447 106.665 129.144 103.608 126.443 102.263C125.307 101.698 122.829 101.351 122.04 100.62C116.651 95.6306 111.695 90.1925 106.514 85.0005L89.4411 67.8924C88.5181 66.9603 83.6039 62.1042 83.0591 61.2961Z"/>
    <path d="M41.3716 73.0641C42.0847 73.4039 49.8098 81.4283 50.8509 82.4744L76.532 108.231C75.8673 109.161 74.9725 110.12 74.2027 110.985C73.7994 111.408 73.9292 111.393 73.4287 111.52C72.6544 110.945 70.0925 108.226 69.3058 107.424L61.5303 99.563L47.713 85.7635C45.5911 83.6528 43.4553 81.5575 41.337 79.4439C39.5558 77.6666 40.2627 75.0025 41.3716 73.0641Z"/>
    <path d="M65.621 66.3783C66.2776 66.4208 67.8356 68.2255 68.3654 68.761L73.3473 73.7536L90.4946 90.9589C93.031 93.5291 96.5574 97.4592 99.0945 99.7147C97.8173 99.687 96.0412 99.9806 94.6296 100.061L93.357 100.421C92.1312 99.3345 90.4932 97.5958 89.3118 96.4099L80.2623 87.192C74.2946 81.1383 67.4868 74.5842 61.7581 68.427C62.6784 68.0899 64.5968 66.9166 65.621 66.3783Z"/>
    <path d="M37.6106 79.9407C39.981 82.0199 43.5735 85.8641 45.9012 88.1855L62.9332 105.19C65.614 107.872 68.4337 110.901 71.1723 113.453C70.4123 114.091 69.9176 114.43 69.0917 114.974C68.222 115.355 67.9495 115.555 67.1998 116.095C66.0159 115.091 64.2429 113.221 63.0928 112.066L55.9571 104.896L49.8624 98.8486C48.7856 97.7849 46.6154 95.7708 45.8888 94.586C45.8173 93.6183 45.8606 92.6333 45.8824 91.6619C44.1506 91.7335 43.3646 91.5579 41.7671 90.7361C40.7253 90.2738 38.3788 88.094 38.3135 86.8479C38.2395 85.4372 37.9951 84.3607 37.4523 82.954C37.1337 82.128 37.1165 80.7983 37.6106 79.9407Z"/>
    <path d="M70.1949 64.3855C71.2371 64.3841 75.0808 68.6118 75.9667 69.4999C78.4449 71.9771 80.9367 74.4405 83.442 76.8903L96.8649 90.2769C99.5491 92.9546 102.235 95.6569 104.912 98.3433C105.28 98.7124 105.402 98.7764 105.434 99.2149C105.062 99.4955 104.36 99.4291 103.867 99.4299C103.016 99.4905 101.975 99.395 101.109 99.3427C98.5517 96.5228 95.5019 93.565 92.803 90.8358C89.7302 87.7274 86.7044 84.5727 83.7264 81.3732L73.6525 70.6828C72.2786 69.2155 69.8191 66.321 68.2778 65.1932L70.1949 64.3855Z"/>
    <path d="M123.821 63.7058C123.888 63.746 123.955 63.7863 124.023 63.8264C130.387 70.0755 136.617 76.4617 142.961 82.7347C144.3 84.0589 144.437 84.2663 143.871 86.2133C143.424 87.7477 143.706 88.9127 143.929 90.4371C143.192 89.5136 142.681 88.9239 141.855 88.081C139.744 85.9974 119.62 65.8996 119.495 65.3488C119.915 65.0841 120.557 65.4436 121.061 65.2836C122.051 64.9696 123.01 64.3144 123.821 63.7058Z"/>
    <path d="M46.238 116.381C45.3316 115.712 44.4777 114.962 43.6951 114.153C40.6313 110.987 37.4507 107.918 34.3613 104.782L34.392 104.541C35.6535 103.762 37.6559 104.783 38.904 105.03C40.5518 105.355 41.3151 105.113 42.6655 106.317C44.7841 108.206 46.6218 110.424 48.7041 112.347C49.6226 113.268 53.1382 116.637 53.4393 117.541C52.9395 117.816 51.4505 117.249 50.0438 117.781C48.646 118.309 48.862 118.495 48.0835 118.959C47.3041 118.777 45.0335 118.185 44.3685 118.225C44.3362 118.823 45.9701 120.071 46.4277 120.633C45.5095 122.05 44.7224 123.547 44.0768 125.108C42.3995 123.434 40.4137 121.309 38.684 119.778C39.1804 118.393 40.0291 116.398 40.7621 115.117C42.8682 115.495 44.1909 115.879 46.238 116.381Z"/>
    <path d="M147.539 93.884C148.056 93.8983 149.339 94.4984 149.969 94.7101C151.576 95.2506 153.128 95.5615 154.758 95.98C155.245 96.1048 156.104 96.3548 156.445 96.6858C157.905 98.1026 166.864 106.962 167.353 107.828C164.394 106.388 160.549 104.891 157.87 104.033C156.911 103.725 148.428 95.0343 147.539 93.884Z"/>
    <path d="M159.589 106.385C160.413 106.341 165.297 109.107 166.363 109.725C169.147 111.342 171.591 112.563 170.727 116.122L170.322 116.256C168.664 116.143 161.763 108.293 159.589 106.385Z"/>
    <path d="M93.5342 33.0518C93.8059 33.0988 94.1579 33.1736 94.3657 33.3749C98.6553 37.531 102.871 41.7632 107.103 45.9789C107.713 46.5874 108.33 47.1847 108.87 47.8579C106.664 47.6549 98.1434 39.0769 96.3742 36.6791C95.5354 35.5424 94.4937 34.1669 93.5342 33.0518Z"/>
    <path d="M148.919 53.9109C149.512 54.0251 150.796 54.7546 151.34 55.0629C154.219 56.6956 155.861 58.7264 157.508 61.5581C157.909 62.2489 158.603 63.1695 158.806 63.9406C158.145 63.5045 148.983 54.1662 148.919 53.9109Z"/>
    <path d="M44.854 73.213C47.0278 73.2622 51.2617 77.1963 49.9759 79.8021L49.807 79.9065L49.5413 79.7458C49.0849 78.8368 45.8032 74.6618 44.854 73.213Z"/>
    <path d="M15.1833 131.939C15.8243 132.113 18.415 134.431 18.6699 134.982C17.5097 135.145 16.8594 134.94 15.7675 134.635C15.5407 133.618 15.2693 133.028 15.1833 131.939Z"/>
    <path d="M175.059 102.008C176.467 102.067 178.378 104.086 178.648 105.512C177.741 105.41 175.672 102.81 175.059 102.008Z"/>
    <path d="M112.641 17.0244C113.134 17.1149 114.011 17.6966 114.47 17.9825C120.377 21.6619 126.15 26.3657 130.29 31.9963C131.545 33.7029 132.913 36.4647 133.813 38.4043C134.227 39.2955 135.45 41.6652 135.635 42.4572C135.43 42.3433 130.88 36.4171 130.152 35.5639C128.382 33.526 126.551 31.5419 124.661 29.6146C123.433 28.3508 113.044 17.9785 112.641 17.0244Z"/>
    <path d="M161.555 97.3816C163.439 97.7855 168.609 99.0807 170.042 99.9927C171.83 101.132 175.923 105.43 177.373 107.107C177.203 107.557 176.889 107.656 176.433 107.986C175.689 108.539 174.266 108.873 173.328 108.808L173.231 108.8C171.697 108.689 163.475 99.11 161.669 97.7749C161.669 97.7749 161.569 97.4297 161.555 97.3816Z"/>
    <path d="M32.1424 106.475C34.8992 109.389 38.0639 112.216 40.762 115.117C38.4745 115.372 37.8875 115.601 36.0027 117.033C34.7227 116.083 30.8364 111.975 29.4749 110.62L30.2845 109.265C30.8381 108.421 31.5522 107.261 32.1424 106.475Z"/>
    <path d="M18.2185 124.937C19.0123 125.14 24.0129 130.463 24.8028 131.436C23.9229 132.314 22.9404 133.083 21.8767 133.726C21.4656 133.983 21.2553 134.09 20.8231 134.29C20.7012 134.28 20.5535 134.267 20.3801 134.252C18.8868 132.901 16.7985 130.575 15.4695 129.173C16.4226 127.378 16.8481 126.39 18.2185 124.937Z"/>
    <path d="M27.7778 113.313C28.8679 113.624 32.7851 117.946 33.8271 119.05C32.8878 120.286 32.0071 121.584 31.1225 122.861L30.979 122.894C29.8789 122.167 26.8503 118.44 25.2842 117.293C25.9631 115.946 27.0054 114.817 27.7778 113.313Z"/>
    <path d="M23.239 119.763C23.8142 119.848 28.6078 124.93 29.3356 125.722C28.2803 127.131 27.885 127.899 26.6512 129.316C25.5342 127.845 21.6872 124.055 20.2495 122.77C21.2826 121.659 22.1067 120.79 23.239 119.763Z"/>
    <path d="M37.0795 122.518C37.9967 122.817 41.6034 126.702 42.679 127.704C42.3974 128.973 41.2714 131.178 40.6731 132.43C40.0085 132.213 35.6228 127.511 34.7954 126.652C35.5104 125.508 36.679 123.748 37.0795 122.518Z"/>
    <path d="M32.7963 129.435C33.7429 129.617 38.0349 134.287 39.0277 135.285C38.278 136.588 37.4729 137.608 36.5683 138.797C35.5266 138.541 31.6349 133.959 30.3123 132.837C31.0505 131.64 31.9871 130.61 32.7963 129.435Z"/>
    <path d="M28.3579 135.344C29.4437 135.793 33.3049 139.963 34.252 141.026C33.6104 141.3 32.7398 141.848 32.1176 142.214C31.0804 142.756 30.1838 142.856 29.0504 143.029C26.4346 140.603 26.9993 138.269 28.3579 135.344Z"/>
    <path d="M46.5638 99.9475C47.3952 100.357 50.933 104.093 51.7823 104.904C55.7959 108.737 59.8885 113.421 63.9618 117.117L62.2985 117.452C61.0871 117.624 59.8735 117.781 58.6582 117.924C55.1704 115.158 51.2265 110.049 47.7294 107.018C46.9704 106.36 46.0783 105.324 45.5199 104.49C45.344 104.227 46.0985 103.449 46.1812 103.203C46.6757 102.212 46.5746 101.024 46.5638 99.9475Z"/>
    <path d="M75.9474 62.5826L77.8661 62.4617C78.7738 63.1767 80.4164 64.8556 81.2914 65.7132L87.2506 71.5679C93.7547 77.9573 100.225 84.3806 106.662 90.8376C108.778 92.9648 113.733 98.0995 115.879 99.7582L115.738 100.05C114.905 99.9589 113.239 99.8184 112.519 99.534L112.427 99.4968C111.083 98.9609 105.632 93.0456 104.094 91.4979L84.313 71.7121C83.1778 70.5803 75.9255 63.5781 75.7053 62.8128L75.9474 62.5826Z"/>
  </g>

  <!-- Text content (right side) -->
  <text x="880" y="200" fill="#FAFAF9" font-family="system-ui, -apple-system, sans-serif" font-size="52" font-weight="600" letter-spacing="0.12em">MATRIX OS</text>
  <text x="880" y="260" fill="#FAFAF9" font-family="Georgia, serif" font-size="28" font-weight="300" opacity="0.6">Your AI operating system</text>
  <text x="880" y="340" fill="#FAFAF9" font-family="ui-monospace, monospace" font-size="16" opacity="0.35">matrix-os.com</text>
</svg>
